<?xml version="1.0" encoding="utf-8"?>
<!-- Generator: Adobe Illustrator 28.1.0, SVG Export Plug-In . SVG Version: 6.00 Build 0)  -->
<svg version="1.1" id="레이어_1" xmlns="http://www.w3.org/2000/svg" xmlns:xlink="http://www.w3.org/1999/xlink" x="0px"
	 y="0px" viewBox="0 0 377.5 2023.7" style="enable-background:new 0 0 377.5 2023.7;" xml:space="preserve">
<style type="text/css">
	.st0{display:none;fill:url(#SVGID_1_);stroke:#FFFFFF;}
	.st1{display:none;fill:url(#SVGID_00000162328365249673334840000005963757757887354760_);stroke:#FFFFFF;}
	.st2{filter:url(#Adobe_OpacityMaskFilter);}
	.st3{fill:url(#SVGID_00000041284908100001278290000005507675804436054930_);stroke:#FFFFFF;}
	
		.st4{mask:url(#SVGID_00000150092276606258412210000018290532056111322246_);fill:url(#SVGID_00000134933349332672164690000016338397032161710773_);stroke:#FFFFFF;}
	.st5{filter:url(#Adobe_OpacityMaskFilter_00000104692825621416959090000002422726250501428117_);}
	.st6{fill:url(#SVGID_00000173855849428591895960000013377306424737550210_);}
	.st7{mask:url(#SVGID_00000171708149475452924950000014635460269078933167_);}
	.st8{fill:none;stroke:#FFFFFF;}
	.st9{filter:url(#Adobe_OpacityMaskFilter_00000116236800391555646280000008513233360267438737_);}
	.st10{fill:url(#SVGID_00000165192332950860346070000010266642874215263674_);}
	.st11{mask:url(#SVGID_00000159450488769350903840000009339723023040183198_);}
	.st12{filter:url(#Adobe_OpacityMaskFilter_00000094618729789481173860000010522950213823295616_);}
	.st13{fill:url(#SVGID_00000121249939359892279170000011867875145108033155_);}
	.st14{mask:url(#SVGID_00000099650383687639186660000012468889608784837298_);}
	.st15{stroke:#FFFFFF;}
</style>
<linearGradient id="SVGID_1_" gradientUnits="userSpaceOnUse" x1="170.4341" y1="392.5635" x2="-196.5139" y2="392.5635" gradientTransform="matrix(1 0 0 -1 0 2025.6639)">
	<stop  offset="0" style="stop-color:#000000"/>
	<stop  offset="1" style="stop-color:#6E6E6E"/>
</linearGradient>
<path class="st0" d="M26.3,1430.4l240.5-102.5v610.4L23.6,1815.3c-13.3-6.7-21.2-20.9-19.8-35.8l12.5-133.7
	c2.3-24.2,2.1-48.5-0.5-72.7L4.4,1467.7C2.7,1451.8,11.5,1436.7,26.3,1430.4z"/>
<linearGradient id="SVGID_00000111880248079979971710000017704331837704498593_" gradientUnits="userSpaceOnUse" x1="170.4341" y1="1002.9326" x2="-196.5139" y2="1002.9326" gradientTransform="matrix(1 0 0 -1 0 2025.6639)">
	<stop  offset="0" style="stop-color:#000000"/>
	<stop  offset="1" style="stop-color:#6E6E6E"/>
</linearGradient>
<path style="display:none;fill:url(#SVGID_00000111880248079979971710000017704331837704498593_);stroke:#FFFFFF;" d="M26.3,820
	l240.5-102.5v610.4L23.6,1205c-13.3-6.7-21.2-20.9-19.8-35.8l12.5-133.7c2.3-24.2,2.1-48.5-0.5-72.7L4.4,857.4
	C2.7,841.5,11.5,826.3,26.3,820z"/>
<defs>
	<filter id="Adobe_OpacityMaskFilter" filterUnits="userSpaceOnUse" x="3.1" y="716.8" width="264.1" height="611.9">
		<feColorMatrix  type="matrix" values="1 0 0 0 0  0 1 0 0 0  0 0 1 0 0  0 0 0 1 0"/>
	</filter>
</defs>
<mask maskUnits="userSpaceOnUse" x="3.1" y="716.8" width="264.1" height="611.9" id="SVGID_00000083061317494282962600000010463993331553376949_">
	<g class="st2">
		
			<linearGradient id="SVGID_00000124123271826231260140000010469461586294679691_" gradientUnits="userSpaceOnUse" x1="190.5058" y1="1020.9149" x2="-301.05" y2="1020.9149">
			<stop  offset="0" style="stop-color:#FFFFFF"/>
			<stop  offset="0.5072" style="stop-color:#000000"/>
		</linearGradient>
		
			<rect x="-129.3" y="703" style="fill:url(#SVGID_00000124123271826231260140000010469461586294679691_);stroke:#FFFFFF;" width="352.4" height="635.8"/>
	</g>
</mask>
<linearGradient id="SVGID_00000155141305117594195820000000172616139768730020_" gradientUnits="userSpaceOnUse" x1="170.4341" y1="1002.9326" x2="-196.5139" y2="1002.9326" gradientTransform="matrix(1 0 0 -1 0 2025.6639)">
	<stop  offset="0" style="stop-color:#000000"/>
	<stop  offset="1" style="stop-color:#6E6E6E"/>
</linearGradient>
<path style="mask:url(#SVGID_00000083061317494282962600000010463993331553376949_);fill:url(#SVGID_00000155141305117594195820000000172616139768730020_);stroke:#FFFFFF;" d="
	M26.3,820l240.5-102.5v610.4L23.6,1205c-13.3-6.7-21.2-20.9-19.8-35.8l12.5-133.7c2.3-24.2,2.1-48.5-0.5-72.7L4.4,857.4
	C2.7,841.5,11.5,826.3,26.3,820z"/>
<g>
	<path d="M26.3,213.3l240.5-102.5v610.4L23.6,598.2c-13.3-6.7-21.2-20.9-19.8-35.8l12.5-133.7c2.3-24.2,2.1-48.5-0.5-72.7L4.4,250.6
		C2.7,234.7,11.5,219.6,26.3,213.3z"/>
	<defs>
		
			<filter id="Adobe_OpacityMaskFilter_00000182513696871875431590000014442116718609170324_" filterUnits="userSpaceOnUse" x="-30.1" y="80" width="331" height="672">
			
				<feColorMatrix  type="matrix" values="-1 0 0 0 1  0 -1 0 0 1  0 0 -1 0 1  0 0 0 1 0" color-interpolation-filters="sRGB" result="source"/>
		</filter>
	</defs>
	
		<mask maskUnits="userSpaceOnUse" x="-30.1" y="80" width="331" height="672" id="SVGID_00000013881234337584872960000007513022033104366251_">
		<g style="filter:url(#Adobe_OpacityMaskFilter_00000182513696871875431590000014442116718609170324_);">
			
				<linearGradient id="SVGID_00000001650666903320926480000003064074980939181717_" gradientUnits="userSpaceOnUse" x1="-577.5165" y1="455.9521" x2="131.5085" y2="455.9521">
				<stop  offset="0.692" style="stop-color:#000000"/>
				<stop  offset="1" style="stop-color:#FFFFFF"/>
			</linearGradient>
			
				<rect x="4.5" y="146.1" style="fill:url(#SVGID_00000001650666903320926480000003064074980939181717_);" width="163.3" height="619.7"/>
		</g>
	</mask>
	<g style="mask:url(#SVGID_00000013881234337584872960000007513022033104366251_);">
		<g>
			
				<image style="overflow:visible;" width="331" height="672" xlink:href="9FC8DFE2FF971463.png"  transform="matrix(1 0 0 1 -30.073 80)">
			</image>
		</g>
	</g>
	<path class="st8" d="M26.3,213.3l240.5-102.5v610.4L23.6,598.2c-13.3-6.7-21.2-20.9-19.8-35.8l12.5-133.7
		c2.3-24.2,2.1-48.5-0.5-72.7L4.4,250.6C2.7,234.7,11.5,219.6,26.3,213.3z"/>
</g>
<g>
	<path d="M26.3,820l240.5-102.5v610.4L23.6,1205c-13.3-6.7-21.2-20.9-19.8-35.8l12.5-133.7c2.3-24.2,2.1-48.5-0.5-72.7L4.4,857.4
		C2.7,841.5,11.5,826.3,26.3,820z"/>
	<defs>
		
			<filter id="Adobe_OpacityMaskFilter_00000111159815978208542610000014439472546180665270_" filterUnits="userSpaceOnUse" x="-30.1" y="687" width="331" height="671">
			
				<feColorMatrix  type="matrix" values="-1 0 0 0 1  0 -1 0 0 1  0 0 -1 0 1  0 0 0 1 0" color-interpolation-filters="sRGB" result="source"/>
		</filter>
	</defs>
	
		<mask maskUnits="userSpaceOnUse" x="-30.1" y="687" width="331" height="671" id="SVGID_00000175300404403668720550000017055814371526976386_">
		<g style="filter:url(#Adobe_OpacityMaskFilter_00000111159815978208542610000014439472546180665270_);">
			
				<linearGradient id="SVGID_00000065053004861259249730000008125756776978995844_" gradientUnits="userSpaceOnUse" x1="-577.5165" y1="1062.6879" x2="131.5085" y2="1062.6879">
				<stop  offset="0.692" style="stop-color:#000000"/>
				<stop  offset="1" style="stop-color:#FFFFFF"/>
			</linearGradient>
			
				<rect x="4.5" y="752.8" style="fill:url(#SVGID_00000065053004861259249730000008125756776978995844_);" width="163.3" height="619.7"/>
		</g>
	</mask>
	<g style="mask:url(#SVGID_00000175300404403668720550000017055814371526976386_);">
		<g>
			
				<image style="overflow:visible;" width="331" height="671" xlink:href="9FC8DFE2FF971466.png"  transform="matrix(1 0 0 1 -30.073 687)">
			</image>
		</g>
	</g>
	<path class="st8" d="M26.3,820l240.5-102.5v610.4L23.6,1205c-13.3-6.7-21.2-20.9-19.8-35.8l12.5-133.7c2.3-24.2,2.1-48.5-0.5-72.7
		L4.4,857.4C2.7,841.5,11.5,826.3,26.3,820z"/>
</g>
<g>
	<path d="M26.3,1430.4l240.5-102.5v610.4L23.6,1815.3c-13.3-6.7-21.2-20.9-19.8-35.8l12.5-133.7c2.3-24.2,2.1-48.5-0.5-72.7
		L4.4,1467.7C2.7,1451.8,11.5,1436.7,26.3,1430.4z"/>
	<defs>
		
			<filter id="Adobe_OpacityMaskFilter_00000028288220609594122260000000814656063937593761_" filterUnits="userSpaceOnUse" x="-30.1" y="1298" width="331" height="671">
			
				<feColorMatrix  type="matrix" values="-1 0 0 0 1  0 -1 0 0 1  0 0 -1 0 1  0 0 0 1 0" color-interpolation-filters="sRGB" result="source"/>
		</filter>
	</defs>
	
		<mask maskUnits="userSpaceOnUse" x="-30.1" y="1298" width="331" height="671" id="SVGID_00000175282516138991120890000007348670510967396245_">
		<g style="filter:url(#Adobe_OpacityMaskFilter_00000028288220609594122260000000814656063937593761_);">
			
				<linearGradient id="SVGID_00000018920449622636530450000011414788891761789578_" gradientUnits="userSpaceOnUse" x1="-577.5165" y1="1673.0569" x2="131.5085" y2="1673.0569">
				<stop  offset="0.692" style="stop-color:#000000"/>
				<stop  offset="1" style="stop-color:#FFFFFF"/>
			</linearGradient>
			
				<rect x="4.5" y="1363.2" style="fill:url(#SVGID_00000018920449622636530450000011414788891761789578_);" width="163.3" height="619.7"/>
		</g>
	</mask>
	<g style="mask:url(#SVGID_00000175282516138991120890000007348670510967396245_);">
		<g>
			
				<image style="overflow:visible;" width="331" height="671" xlink:href="9FC8DFE2FF971465.png"  transform="matrix(1 0 0 1 -30.073 1298)">
			</image>
		</g>
	</g>
	<path class="st8" d="M26.3,1430.4l240.5-102.5v610.4L23.6,1815.3c-13.3-6.7-21.2-20.9-19.8-35.8l12.5-133.7
		c2.3-24.2,2.1-48.5-0.5-72.7L4.4,1467.7C2.7,1451.8,11.5,1436.7,26.3,1430.4z"/>
</g>
<path class="st15" d="M204.9,0H343c19.1,0,34.5,15.5,34.5,34.5v1954.6c0,19.1-15.5,34.5-34.5,34.5H204.9
	c-19.1,0-34.5-15.5-34.5-34.5V34.5C170.4,15.5,185.9,0,204.9,0z"/>
</svg>
