<?xml version="1.0" encoding="utf-8"?>
<!-- Generator: Adobe Illustrator 28.1.0, SVG Export Plug-In . SVG Version: 6.00 Build 0)  -->
<svg version="1.1" id="Layer_1" xmlns="http://www.w3.org/2000/svg" xmlns:xlink="http://www.w3.org/1999/xlink" x="0px" y="0px"
	 viewBox="0 0 64 64" style="enable-background:new 0 0 64 64;" xml:space="preserve">
<style type="text/css">
	.st0{fill:#FFFFFF;}
</style>
<g>
	<g>
		<g>
			<g>
				<path class="st0" d="M32,62c-10.3,0-18.6-8.3-18.6-18.6V16.6C13.4,8.6,20,2,28,2H36C44,2,50.6,8.6,50.6,16.6v26.8
					C50.6,53.7,42.3,62,32,62z M28,4c-7,0-12.6,5.7-12.6,12.6v26.8C15.4,52.6,22.8,60,32,60s16.6-7.4,16.6-16.6V16.6
					C48.6,9.7,42.9,4,36,4H28z"/>
			</g>
		</g>
		<g>
			<path class="st0" d="M32,28c-2.2,0-4-1.8-4-4v-9.2c0-2.2,1.8-4,4-4s4,1.8,4,4v9.2C36,26.3,34.2,28,32,28z M32,12.9
				c-1.1,0-2,0.9-2,2v9.2c0,1.1,0.9,2,2,2s2-0.9,2-2v-9.2C34,13.8,33.1,12.9,32,12.9z"/>
		</g>
		<g>
			<path class="st0" d="M32,12.9c-0.6,0-1-0.4-1-1V3c0-0.6,0.4-1,1-1s1,0.4,1,1v8.9C33,12.5,32.6,12.9,32,12.9z"/>
		</g>
	</g>
	<g>
		<path class="st0" d="M49.6,32H14.4c-0.6,0-1-0.4-1-1s0.4-1,1-1h35.2c0.6,0,1,0.4,1,1S50.2,32,49.6,32z"/>
	</g>
</g>
<g>
	<path class="st0" d="M31.7,58C31.7,58,31.7,58,31.7,58c-1.8-0.1-5.1-0.7-8.3-3.2c-3.2-2.5-4.5-5.7-5.1-7.4
		c-0.2-0.5,0.1-1.1,0.7-1.2c0.5-0.2,1.1,0.1,1.2,0.7c0.4,1.5,1.6,4.2,4.4,6.4c2.7,2.1,5.6,2.7,7.1,2.8c0.6,0,1,0.5,0.9,1.1
		C32.7,57.6,32.2,58,31.7,58z"/>
</g>
</svg>
