<?xml version="1.0" encoding="UTF-8"?>
<svg id="_레이어_3" data-name="레이어 3" xmlns="http://www.w3.org/2000/svg" viewBox="0 0 97 68">
  <defs>
    <style>
      .cls-1 {
        fill: #fff;
        stroke-width: 0px;
      }
    </style>
  </defs>
  <path class="cls-1" d="M95.93,19.65c1.13-1.18,1.09-3.05-.1-4.18-1.18-1.13-3.05-1.09-4.18.1-14.33,14.99-29.29,22.28-44.46,21.64C23.46,36.2,6.85,15.95,6.69,15.75c-1.02-1.27-2.88-1.47-4.16-.45-1.27,1.02-1.48,2.89-.45,4.16.38.47,5.19,6.35,13.32,12.13l-10.25,13.59c-.98,1.3-.72,3.16.58,4.14.53.4,1.16.6,1.78.6.9,0,1.78-.41,2.36-1.18l10.49-13.92c7.17,4.25,16.17,7.84,26.52,8.28.21,0,.42,0,.64.01v18.04c0,1.63,1.32,2.96,2.96,2.96s2.96-1.32,2.96-2.96v-18.23c8.15-.72,16.18-3.46,24.03-8.19l11.56,14.09c.58.71,1.43,1.08,2.29,1.08.66,0,1.32-.22,1.87-.67,1.26-1.04,1.45-2.9.41-4.16l-11.16-13.61c4.56-3.27,9.06-7.2,13.48-11.83Z"/>
</svg>