<svg width="97" height="68" viewBox="0 0 97 68" fill="none" xmlns="http://www.w3.org/2000/svg">
<path d="M21.5 26.5L9.5 12M49.5 17V3M78 26.5L89.5 17" stroke="white" stroke-width="5" stroke-linecap="round" stroke-linejoin="round"/>
<mask id="path-2-outside-1_137_673" maskUnits="userSpaceOnUse" x="0" y="15" width="97" height="53" fill="black">
<rect fill="white" y="15" width="97" height="53"/>
<path d="M7 43.2826C19.1869 25.9109 56.8276 3.31232 92 43.2826C76.8306 61.4229 36.4646 76.6424 7 43.2826Z"/>
</mask>
<path d="M7 43.2826L2.9068 40.4111L0.642929 43.6381L3.25245 46.5926L7 43.2826ZM92 43.2826L95.8356 46.4901C97.4187 44.597 97.3838 41.8321 95.7536 39.9795L92 43.2826ZM11.0932 46.1541C16.5461 38.3814 27.9266 29.2505 41.7865 26.6966C55.2149 24.2222 71.7007 27.783 88.2464 46.5857L95.7536 39.9795C77.1269 18.8119 57.2062 13.6869 39.9744 16.8621C23.1742 19.9579 9.64083 30.8121 2.9068 40.4111L11.0932 46.1541ZM88.1644 40.0751C81.3993 48.1652 68.6738 55.8815 54.2581 57.6316C40.1213 59.3478 24.3254 55.3454 10.7475 39.9726L3.25245 46.5926C19.1392 64.5796 38.2586 69.6474 55.4633 67.5587C72.3891 65.5039 87.4313 56.5404 95.8356 46.4901L88.1644 40.0751Z" fill="white" mask="url(#path-2-outside-1_137_673)"/>
</svg>
